<?xml version="1.0" encoding="utf-8"?>
<!-- Generator: Adobe Illustrator 19.1.1, SVG Export Plug-In . SVG Version: 6.00 Build 0)  -->
<svg version="1.1" id="Layer_1" xmlns="http://www.w3.org/2000/svg" xmlns:xlink="http://www.w3.org/1999/xlink" x="0px" y="0px"
	 viewBox="0 0 300 300" style="enable-background:new 0 0 300 300;" xml:space="preserve">
<style type="text/css">
	.st0{fill-rule:evenodd;clip-rule:evenodd;fill:#2E3844;}
	.st1{fill-rule:evenodd;clip-rule:evenodd;fill:#FFE63F;}
	.st2{fill-rule:evenodd;clip-rule:evenodd;fill:#FF9E02;}
</style>
<path class="st0" d="M210.2,175.4l13-6.3c0.1-0.1,0.1-0.3,0.2-0.4v-32.8l-13,6.2L210.2,175.4L210.2,175.4z"/>
<path class="st0" d="M73.1,135.9V169c23.2,11.1,46.4,22.2,69.6,33.3c4,1.5,7.8,1.2,11.7,0l42.8-20.7v-33.2l-48.9,23.5L73.1,135.9
	L73.1,135.9z"/>
<path class="st1" d="M207.3,133.1l-1.1-0.8l-45.8-25.3c0.3-0.9,0.4-1.9,0.4-3c0-5.9-4.8-10.7-10.8-10.7c-5.9,0-10.7,4.8-10.7,10.7
	c0,5.9,4.8,10.7,10.7,10.7c2.8,0,5.4-1.1,7.3-2.9l45.3,25.1L207.3,133.1L207.3,133.1z"/>
<path class="st0" d="M266.7,104.1L148.3,46l-115,55.4v5.2l115,55.4l48.9-23.9v-1.5l-39.5-20.8c-2.3,1.5-4.9,2.3-7.7,2.3
	c-7.7,0-13.9-6.2-13.9-13.9c0-7.7,6.2-13.9,13.9-13.9c7.7,0,13.9,6.2,13.9,13.9c0,0.4,0,0.8-0.1,1.2l46.7,26.2L266.7,104.1
	L266.7,104.1z"/>
<polygon class="st1" points="207.3,133.1 208.1,182.6 203.4,182.6 202.6,137.1 207.3,133.1 "/>
<path class="st1" d="M205.8,187.7c3.5,0,6.3-2.9,6.3-6.3c0-3.5-2.9-6.4-6.3-6.4c-3.5,0-6.3,2.9-6.3,6.4
	C199.4,184.8,202.3,187.7,205.8,187.7L205.8,187.7z"/>
<polygon class="st2" points="199.9,187.1 211.6,187.1 217.4,254 194.1,254 199.9,187.1 "/>
</svg>
