<?xml version="1.0" encoding="utf-8"?>
<!-- Generator: Adobe Illustrator 19.1.1, SVG Export Plug-In . SVG Version: 6.00 Build 0)  -->
<svg version="1.1" id="Layer_1" xmlns="http://www.w3.org/2000/svg" xmlns:xlink="http://www.w3.org/1999/xlink" x="0px" y="0px"
	 viewBox="0 0 300 300" style="enable-background:new 0 0 300 300;" xml:space="preserve">
<style type="text/css">
	.st0{fill-rule:evenodd;clip-rule:evenodd;fill:#446D73;}
	.st1{fill-rule:evenodd;clip-rule:evenodd;fill:#DD4F39;}
	.st2{fill-rule:evenodd;clip-rule:evenodd;fill:#03B8C3;}
	.st3{fill-rule:evenodd;clip-rule:evenodd;fill:#E74B3C;}
	.st4{fill-rule:evenodd;clip-rule:evenodd;fill:#E4A936;}
	.st5{fill-rule:evenodd;clip-rule:evenodd;fill:#647B98;}
</style>
<path class="st0" d="M165.9,81.6c0-8.9-7.2-16.1-16.1-16.1c-8.9,0-16.1,7.2-16.1,16.1c-5.4,0-10.7,0-16.1,0
	c0-17.8,14.4-32.2,32.2-32.2c17.8,0,32.2,14.4,32.2,32.2C176.7,81.6,182,81.6,165.9,81.6L165.9,81.6z"/>
<path class="st1" d="M67.2,80.1h165.2v101.9c0,7.1-5.8,12.8-12.8,12.8H80.1c-7.1,0-12.8-5.8-12.8-12.8V80.1L67.2,80.1z"/>
<path class="st2" d="M67.2,80.1h165.2v33.7c0,18.5-15.1,33.6-33.6,33.6h-97.9c-18.5,0-33.7-15.1-33.7-33.6V80.1L67.2,80.1z"/>
<path class="st3" d="M113,129.3h-12.3c-1.7,0-3.2,1-4,2.4l-29.4-24.9v11.9l28.9,24.4v10.2c0,2.5,2,4.6,4.6,4.6H113
	c2.5,0,4.6-2,4.6-4.6v-7.4h64.3v7.4c0,2.5,2,4.6,4.6,4.6h12.3c2.5,0,4.6-2,4.6-4.6v-10.2l29.2-24.7v-11.9l-29.8,25.1
	c-0.8-1.4-2.3-2.4-4-2.4h-12.3c-2.5,0-4.6,2-4.6,4.6v2.9h-64.3v-2.9C117.5,131.4,115.5,129.3,113,129.3L113,129.3z"/>
<path class="st4" d="M113,129.3h-12.3c-1.7,0-3.2,1-4,2.4l-29.4-24.9v6.9v5.4l28.9,24v3.9c1.6,0.2,3.2,0.3,4.8,0.3h16.6v-1.5h64.3
	v1.5h17c1.5,0,3-0.1,4.5-0.3v-3.9l28.8-24.3c0.3-1.7,0.4-3.3,0.4-5.1v-7.2l-29.8,25.1c-0.8-1.4-2.3-2.4-4-2.4h-12.3
	c-2.5,0-4.6,2-4.6,4.6v2.9h-64.3v-2.9C117.5,131.4,115.5,129.3,113,129.3L113,129.3z"/>
<path class="st5" d="M117.7,136.8h-0.2v-2.9c0-2.5-2-4.6-4.6-4.6h-12.3c-1.7,0-3.2,1-4,2.4l-0.3-0.2l-0.3,12.3v3.3v6.3
	c0,2.5,2,4.6,4.6,4.6H113c2.5,0,4.6-2,4.6-4.6v-6v-1.5h64.3v1.5h0.4h16.6c1.5,0,3-0.1,4.5-0.3v-3.9l28.8-24.3
	c0.3-1.7,0.4-3.3,0.4-5.1v-7.2l-29.6,25l-0.2,0.1c-0.8-1.4-2.3-2.4-4-2.4h-12.3c-2.5,0-4.6,2-4.6,4.6v2.9H117.7L117.7,136.8z"/>
<path class="st4" d="M181.8,147.4v6c0,2.5,2,4.6,4.6,4.6h12.3c2.5,0,4.6-2,4.6-4.6v-6.3v-3.9l29.2-24.3c0-1.5,0-3.3,0-5.1v-7.2
	l-29.6,25l-0.2,0.1c-0.8-1.4-2.3-2.4-4-2.4h-12.3c-2.5,0-4.6,2-4.6,4.6v2.9h-64.1h-0.2v-2.9c0-2.5-2-4.6-4.6-4.6h-12.3
	c-1.7,0-3.2,1-4,2.4l-1-0.9l-0.3,12.3l0.7,3.9v6.3c0,2.5,2,4.6,4.6,4.6H113c2.5,0,4.6-2,4.6-4.6v-6v-1.5h64.3V147.4L181.8,147.4z"/>
<path class="st1" d="M95.4,142.6l-28.2-23.4c1.3,15.4,13.7,26.5,28.9,27.9l-0.7-3.9L95.4,142.6L95.4,142.6z"/>
<polygon class="st1" points="181.8,145.9 117.5,145.9 117.5,147.9 181.8,147.9 181.8,145.9 "/>
<path class="st1" d="M232.1,119.1l-28.8,24v3.9c6.3-0.8,12.5-2.8,17.2-6.6C227,135.2,230.9,127.3,232.1,119.1L232.1,119.1z"/>
</svg>
