<?xml version="1.0" encoding="utf-8"?>
<!-- Generator: Adobe Illustrator 19.1.1, SVG Export Plug-In . SVG Version: 6.00 Build 0)  -->
<svg version="1.1" id="Layer_1" xmlns="http://www.w3.org/2000/svg" xmlns:xlink="http://www.w3.org/1999/xlink" x="0px" y="0px"
	 viewBox="0 0 300 300" style="enable-background:new 0 0 300 300;" xml:space="preserve">
<style type="text/css">
	.st0{fill-rule:evenodd;clip-rule:evenodd;fill:#DD4F39;}
	.st1{fill-rule:evenodd;clip-rule:evenodd;fill:#DBDBDB;}
	.st2{fill-rule:evenodd;clip-rule:evenodd;fill:#79ACCB;}
	.st3{fill-rule:evenodd;clip-rule:evenodd;fill:#D6D7D0;}
	.st4{fill-rule:evenodd;clip-rule:evenodd;fill:#FFCC00;}
	.st5{fill-rule:evenodd;clip-rule:evenodd;fill:#FFFFFF;}
	.st6{fill-rule:evenodd;clip-rule:evenodd;fill:#544A65;}
</style>
<path class="st0" d="M149.1,43.9h1.5c0,1.2,5.6,2.2,7.6,0c2.8-3,7.6,0,7.6,0v8.6c0,0-3.9-3.2-7.6,0c-2.8,2.5-6.1,1.1-7.5,0.4
	c0,1.2,0,4.7,0.1,7h-1.5C149.2,54.9,149.1,49.6,149.1,43.9L149.1,43.9z"/>
<path class="st1" d="M150.8,59.6c5.4,0.5,11.3,5.4,27.9,14.6c1.6,0.9,2.6,2.6,2.6,4.5v19.6h32.4c3.8,0,6.8,3.1,6.8,6.8l0,73.4
	l-0.1,15l-60.7-0.1v-25.2h-20v25.2l-60.6-0.1l-0.2-8.5l0.2-7.5v-72.2c0-3.8,3.1-6.8,6.8-6.8h32.4V78.7c0-1.9,1-3.6,2.6-4.5
	c16.3-9.1,22.3-14,27.6-14.6C149.5,59.6,150.2,59.6,150.8,59.6L150.8,59.6z"/>
<path class="st1" d="M41.4,117.2H79c0.2,0,0.3,0.1,0.3,0.3v75.8H40.8v-75.5C40.8,117.5,41,117.2,41.4,117.2L41.4,117.2z"/>
<polygon class="st2" points="45.3,133.8 55.6,133.8 55.6,142 45.3,142 45.3,133.8 "/>
<polygon class="st2" points="63.5,133.8 73.7,133.8 73.7,142 63.5,142 63.5,133.8 "/>
<polygon class="st2" points="45.8,151.2 56.1,151.2 56.1,159.4 45.8,159.4 45.8,151.2 "/>
<polygon class="st2" points="63.9,151.2 74.2,151.2 74.2,159.4 63.9,159.4 63.9,151.2 "/>
<polygon class="st2" points="46.3,168.6 56.6,168.6 56.6,176.8 46.3,176.8 46.3,168.6 "/>
<polygon class="st2" points="64.4,168.6 74.7,168.6 74.7,176.8 64.4,176.8 64.4,168.6 "/>
<path class="st1" d="M220.7,117.2h37.7c0.3,0,0.5,0.2,0.5,0.5v75.6h-38.5v-75.8C220.4,117.4,220.6,117.2,220.7,117.2L220.7,117.2z"
	/>
<polygon class="st2" points="225,133.8 235.3,133.8 235.3,142 225,142 225,133.8 "/>
<polygon class="st2" points="243.1,133.8 253.4,133.8 253.4,142 243.1,142 243.1,133.8 "/>
<polygon class="st2" points="225.5,151.2 235.8,151.2 235.8,159.4 225.5,159.4 225.5,151.2 "/>
<polygon class="st2" points="243.6,151.2 253.9,151.2 253.9,159.4 243.6,159.4 243.6,151.2 "/>
<polygon class="st2" points="226,168.6 236.2,168.6 236.2,176.8 226,176.8 226,168.6 "/>
<polygon class="st2" points="244.1,168.6 254.4,168.6 254.4,176.8 244.1,176.8 244.1,168.6 "/>
<polygon class="st0" points="139.8,193.4 159.9,193.5 159.9,168.3 139.8,168.3 139.8,193.4 "/>
<path class="st1" d="M174.6,196.8c0,0.3-0.3,0.6-0.6,0.6h-48.7c-0.3,0-0.6-0.3-0.6-0.6v-1.5c0-0.3,0.3-0.6,0.6-0.6H174
	c0.3,0,0.6,0.3,0.6,0.6V196.8L174.6,196.8z"/>
<path class="st3" d="M178.5,201c0,0.3-0.3,0.6-0.6,0.6h-56c-0.3,0-0.6-0.3-0.6-0.6v-1.5c0-0.3,0.3-0.6,0.6-0.6h56
	c0.3,0,0.6,0.3,0.6,0.6V201L178.5,201z"/>
<path class="st4" d="M149.9,74.7L149.9,74.7c-6.7,0-12.1,5.4-12.1,12.1c0,6.7,5.4,12.2,12.1,12.2s12.2-5.5,12.2-12.2
	C162.1,80.2,156.7,74.7,149.9,74.7L149.9,74.7z"/>
<path class="st5" d="M149.9,96.6L149.9,96.6c-5.3,0-9.7-4.4-9.7-9.7c0-5.3,4.4-9.7,9.7-9.7c5.4,0,9.7,4.4,9.7,9.7
	C159.7,92.3,155.3,96.6,149.9,96.6L149.9,96.6z"/>
<polygon class="st6" points="144,80.2 144,80.2 145.9,82 145.1,82.8 143.3,81 144,80.2 "/>
<polygon class="st6" points="149.4,78 149.4,78 150.5,78 150.5,80.6 149.4,80.6 149.4,78 "/>
<polygon class="st6" points="150.5,95.8 150.5,95.8 149.4,95.8 149.4,93.2 150.5,93.2 150.5,95.8 "/>
<polygon class="st6" points="144,93.6 144,93.6 143.3,92.8 145.1,91 145.9,91.8 144,93.6 "/>
<path class="st6" d="M154.2,83.9L154.2,83.9c-0.1-0.1-0.3-0.1-0.4-0.1l-3.3,2.3c-0.1-0.1-0.2-0.1-0.4-0.1c-0.1,0-0.1,0-0.1,0l-2.4-2
	c-0.1-0.1-0.3-0.1-0.4,0l-0.2,0.2c-0.1,0.2-0.1,0.3,0,0.4l2.4,2v0c0,0.4,0.3,0.7,0.7,0.8v4.3h0.2v-4.3c0.4-0.1,0.7-0.4,0.7-0.8
	c0,0,0-0.1,0-0.1l3.3-2.3C154.3,84.3,154.3,84.1,154.2,83.9L154.2,83.9L154.2,83.9z"/>
<polygon class="st6" points="143.6,86.3 143.6,87.5 141,87.5 141,86.3 143.6,86.3 "/>
<polygon class="st6" points="158.9,86.3 158.9,86.3 158.9,87.5 156.3,87.5 156.3,86.3 158.9,86.3 "/>
<polygon class="st6" points="154.8,91 154.8,91 156.7,92.8 155.8,93.6 154,91.8 154.8,91 "/>
<polygon class="st6" points="155.8,80.2 155.8,80.2 156.7,81 154.8,82.8 154,82 155.8,80.2 "/>
<polygon class="st2" points="191.9,123.5 208.1,123.5 208.1,136.4 191.9,136.4 191.9,123.5 "/>
<polygon class="st2" points="170.2,142.1 186.4,142.1 186.4,155 170.2,155 170.2,142.1 "/>
<polygon class="st2" points="191.9,142.1 208.1,142.1 208.1,155 191.9,155 191.9,142.1 "/>
<polygon class="st2" points="170.2,123.5 186.4,123.5 186.4,136.4 170.2,136.4 170.2,123.5 "/>
<polygon class="st2" points="170.2,160.7 186.4,160.7 186.4,173.6 170.2,173.6 170.2,160.7 "/>
<polygon class="st2" points="191.9,160.7 208.1,160.7 208.1,173.6 191.9,173.6 191.9,160.7 "/>
<polygon class="st2" points="113.3,123.5 129.5,123.5 129.5,136.4 113.3,136.4 113.3,123.5 "/>
<polygon class="st2" points="91.6,142.1 107.8,142.1 107.8,155 91.6,155 91.6,142.1 "/>
<polygon class="st2" points="113.3,142.1 129.5,142.1 129.5,155 113.3,155 113.3,142.1 "/>
<polygon class="st2" points="91.6,123.5 107.8,123.5 107.8,136.4 91.6,136.4 91.6,123.5 "/>
<polygon class="st2" points="91.6,160.7 107.8,160.7 107.8,173.6 91.6,173.6 91.6,160.7 "/>
<polygon class="st2" points="113.3,160.7 129.5,160.7 129.5,173.6 113.3,173.6 113.3,160.7 "/>
</svg>
